<?xml version="1.0" encoding="utf-8"?>
<!-- Uploaded to: SVG Repo, www.svgrepo.com, Generator: SVG Repo Mixer Tools -->
<svg version="1.1" id="Uploaded to svgrepo.com" xmlns="http://www.w3.org/2000/svg" xmlns:xlink="http://www.w3.org/1999/xlink" 
	 width="800px" height="800px" viewBox="0 0 32 32" xml:space="preserve">
<style type="text/css">
	.avocado_een{fill:#231F20;}
	.avocado_zes{fill:#FFFAEE;}
	.avocado_vier{fill:#AF9480;}
	.st0{fill:#3D3935;}
	.st1{fill:#E0A838;}
	.st2{fill:#716558;}
	.st3{fill:#DBD2C1;}
	.st4{fill:#A3AEB5;}
	.st5{fill:#788287;}
	.st6{fill:#EAD13F;}
	.st7{fill:#D1712A;}
	.st8{fill:#CC4121;}
	.st9{fill:#8D3E93;}
	.st10{fill:#248EBC;}
	.st11{fill:#6F9B45;}
	.st12{fill:#C3CC6A;}
</style>
<g>
	<path class="avocado_zes" d="M16,1.5C8.906,1.5,4.5,6.673,4.5,15c0,8.111,4.302,16.5,11.5,16.5S27.5,23.111,27.5,15
		C27.5,6.673,23.094,1.5,16,1.5z"/>
	<path class="avocado_vier" d="M16,4.5c-3.733,0-7.5,2.01-7.5,6.5s3.767,6.5,7.5,6.5s7.5-2.01,7.5-6.5S19.733,4.5,16,4.5z"/>
	<path class="avocado_een" d="M17,9h2v2h-2V9z M28,15c0,8.837-4.82,17-12,17S4,23.837,4,15S8.82,1,16,1S28,6.163,28,15z
		 M27,15c0-8.019-4.215-13-11-13C9.215,2,5,6.981,5,15c0,4.33,1.048,7.903,2.673,10.568l0.202-0.052
		c7.044-1.824,10.479-5.995,11.868-8.224C18.626,17.755,17.353,18,16,18c-4.418,0-8-2.582-8-7s3.582-7,8-7s8,2.582,8,7
		c0,2.337-1.008,4.153-2.606,5.352c-0.495,1.147-3.658,7.583-13.135,10.092C10.356,29.383,13.2,31,16,31C21.407,31,27,25.015,27,15z
		 M23,11c0-4.145-3.516-6-7-6c-3.484,0-7,1.855-7,6c0,4.145,3.516,6,7,6C19.484,17,23,15.145,23,11z M13,11h2V9h-2V11z"/>
</g>
</svg>