<?xml version="1.0" encoding="utf-8"?>
<!-- Svg Vector Icons : http://www.onlinewebfonts.com/icon -->
<!DOCTYPE svg PUBLIC "-//W3C//DTD SVG 1.1//EN" "http://www.w3.org/Graphics/SVG/1.1/DTD/svg11.dtd">
<svg version="1.1" xmlns="http://www.w3.org/2000/svg" xmlns:xlink="http://www.w3.org/1999/xlink" x="0px" y="0px" viewBox="0 0 256 256" enable-background="new 0 0 256 256" xml:space="preserve">
<metadata> Svg Vector Icons : http://www.onlinewebfonts.com/icon </metadata>
<g><g><g><path fill="#000000" d="M105,12c-4.1,3.7-6.4,12.3-6.5,24.8l-0.1,11l-3.1,3.4c-4.5,5-6.9,9.3-8.3,14.8c-1.3,4.8-1.4,4.9-7.5,7.9c-9,4.5-19.7,15.5-24.1,24.4c-5.2,11-6.4,16.8-6.4,31.1c0,10.6,0.4,14.1,2.3,22.2c7.5,29.6,27.3,62.3,47.8,78.8c19.2,15.4,39.9,19.7,56,11.8c20.5-10.2,41.4-45.9,49.2-84.3c2.9-14.3,3-35.8,0.1-46.2c-4-14.5-12.3-25.8-23.2-31.3c-2.5-1.3-4.7-2.3-4.9-2.4c-0.2-0.1,1-1.9,2.5-4.1c1.5-2.1,2.8-4.7,2.8-5.8c0-1.1-2.4-5.7-5.4-10.2c-5.9-9-7.5-9.9-13.7-8.4c-3.7,1-3.8,0.9-7.1-2.5c-4-4.1-8.7-6.7-14.7-8.2c-4.1-1-4.1-1.1-4.1-4.8c0-2,0.6-4.8,1.3-6.1c2.7-5.1,1.9-9.9-1.9-11.4c-3.2-1.3-25-6.4-27.3-6.4C108.1,10,106.3,10.9,105,12z M119.2,26.3l3.9,0.9v6.5c0,5.5,0.4,7.3,2.6,11.3c3,5.5,3.8,6,10,6.9c2.5,0.3,5.9,1.4,7.7,2.4l3,1.8l-3.5,2.8c-4.5,3.5-12.9,11.9-15.9,15.8l-2.3,2.9l-6.2-3.2c-3.5-1.8-8.8-3.7-11.9-4.2c-3.2-0.5-5.7-1.4-5.7-1.8c0-3,4.5-8,11.1-12.6c3-2.1,3.3-4.6,1.3-10.6c-2.3-6.6-1.4-19.8,1.4-19.8C115,25.3,117.1,25.8,119.2,26.3z M165.6,65.9c0.9,1.5,0.7,2.3-1.3,5.6c-7.4,11.7-10.1,22.3-11.2,44c-0.9,19.6-2.3,25-8.5,33.7c-4.1,5.7-13.2,13.7-21.4,19c-6.2,3.9-7.4,8-3.6,12.3c4,4.6,15.3-1.6,29.5-15.9c13.7-13.8,16.4-20.9,17.7-45.6c0.7-16.2,1.8-24.3,3.5-26.9c2-3.3,13.7,5.9,17.9,14.1c5.2,10.3,6.4,30.9,2.8,49.2c-6.6,33.2-24.7,65.8-41.4,74.5c-5.9,3-16.4,2.9-24.1-0.3c-9.6-4-15.5-8-24.1-16.5C85,197,70.3,170.4,64.8,147.3c-2.4-10.1-2.7-24.5-0.5-32.5C67.7,101.7,75.7,91.2,86,86c4.5-2.2,6.5-2.6,12.2-2.6c7.4,0.1,14.1,2,16.8,5c1.5,1.7,1.5,1.9-0.1,5.1c-1,1.8-4.1,5.6-6.8,8.5c-4.2,4.3-5.9,5.3-11.4,6.9c-4.1,1.3-6.8,2.6-7.4,3.7c-1.5,2.9-1,6.3,1.4,8.7c2,2,2.7,2.2,6.5,1.6c11.9-1.6,22-9.8,31.2-25.3c9.8-16.3,18.8-26.2,28.6-31.3C162.5,63.6,164.1,63.4,165.6,65.9z"/></g></g></g>
</svg>