<!DOCTYPE svg PUBLIC "-//W3C//DTD SVG 1.1//EN" "http://www.w3.org/Graphics/SVG/1.1/DTD/svg11.dtd">
<!-- Uploaded to: SVG Repo, www.svgrepo.com, Transformed by: SVG Repo Mixer Tools -->
<svg fill="#ffffff" height="64px" width="64px" version="1.1" id="Capa_1" xmlns="http://www.w3.org/2000/svg" xmlns:xlink="http://www.w3.org/1999/xlink" viewBox="0 0 56.222 56.222" xml:space="preserve" stroke="#ffffff">
<g id="SVGRepo_bgCarrier" stroke-width="0"/>
<g id="SVGRepo_tracerCarrier" stroke-linecap="round" stroke-linejoin="round"/>
<g id="SVGRepo_iconCarrier"> <path d="M42.972,1.963c-4.514,0-9.524,3.714-9.749,9.713c-0.07,1.865,0.766,3.792,1.65,5.832c0.314,0.724,0.629,1.457,0.911,2.196 c-2.606-1.093-4.562-5.458-4.562-8.445c0-0.553-0.447-1-1-1s-1,0.447-1,1c0,4.066,2.908,9.98,7.024,10.638 c0.075,0.089,0.165,0.16,0.267,0.218c0.02,0.094,0.041,0.188,0.058,0.282c-3.722,0.564-6.833,2.992-8.349,6.307 c-1.546-3.379-4.748-5.839-8.566-6.34c0.029-0.156,0.067-0.311,0.102-0.467c4.183-0.663,7.464-6.649,7.464-10.638 c0-0.553-0.447-1-1-1s-1,0.447-1,1c0,3.052-2.205,7.093-4.736,8.323c0.27-0.698,0.566-1.39,0.863-2.074 c0.885-2.04,1.721-3.967,1.65-5.832c-0.225-5.999-5.235-9.713-9.749-9.713c-7.306,0-13.25,9.869-13.25,22s5.944,22,13.25,22 c2.692,0,7.705,0,9.693-5.669c0.787-2.243-0.213-4.899-1.371-7.975c-0.926-2.459-1.959-5.229-2.054-7.956 c4.349,0.632,7.703,4.374,7.703,8.896v20c0,0.553,0.447,1,1,1s1-0.447,1-1v-20c0-4.444,3.24-8.136,7.48-8.861 c-0.103,2.716-1.13,5.473-2.052,7.922c-1.158,3.075-2.158,5.731-1.371,7.975c1.989,5.669,7.001,5.669,9.693,5.669 c7.306,0,13.25-9.869,13.25-22S50.277,1.963,42.972,1.963z M21.057,39.632c-1.402,3.997-4.625,4.331-7.807,4.331 c-6.203,0-11.25-8.972-11.25-20s5.047-20,11.25-20c3.603,0,7.576,3.129,7.751,7.787c0.053,1.412-0.695,3.137-1.487,4.962 c-0.08,0.185-0.161,0.374-0.242,0.563c-1.406-3.461-4.673-6.016-8.271-6.016c-0.553,0-1,0.447-1,1s0.447,1,1,1 c3.597,0,6.872,3.542,6.989,7.489c-0.145,0.515-0.262,1.039-0.346,1.571H12c-0.553,0-1,0.447-1,1s0.447,1,1,1h5.503 c-0.029,3.848-2.633,7.94-6.503,7.94c-0.553,0-1,0.447-1,1s0.447,1,1,1c3.335,0,5.945-2.227,7.352-5.12 c0.4,1.353,0.885,2.657,1.348,3.885C20.679,35.621,21.603,38.074,21.057,39.632z M42.972,43.963c-3.181,0-6.403-0.334-7.807-4.331 c-0.546-1.558,0.378-4.011,1.356-6.608c0.463-1.229,0.949-2.534,1.349-3.888c1.57,2.998,4.574,5.123,7.855,5.123 c0.553,0,1-0.447,1-1s-0.447-1-1-1c-3.663,0-7-3.672-7-7.704c0-0.043-0.019-0.079-0.024-0.121c0.002-0.058,0.006-0.116,0.008-0.175 h6.017c0.553,0,1-0.447,1-1s-0.447-1-1-1h-6.155c-0.113-0.69-0.279-1.368-0.487-2.03c0.493-3.423,3.335-6.97,6.916-6.97 c0.553,0,1-0.447,1-1s-0.447-1-1-1c-3.665,0-6.662,2.676-8.092,5.918c-0.067-0.155-0.134-0.313-0.2-0.465 c-0.792-1.825-1.54-3.55-1.487-4.962c0.175-4.658,4.148-7.787,7.751-7.787c6.203,0,11.25,8.972,11.25,20 S49.175,43.963,42.972,43.963z"/> </g>
</svg>