<?xml version="1.0" encoding="iso-8859-1"?>
<!-- Uploaded to: SVG Repo, www.svgrepo.com, Generator: SVG Repo Mixer Tools -->
<svg height="800px" width="800px" version="1.1" id="Layer_1" xmlns="http://www.w3.org/2000/svg" xmlns:xlink="http://www.w3.org/1999/xlink" 
	 viewBox="0 0 496 496" xml:space="preserve">
<path style="fill:#E94545;" d="M464,272h-8.8c0.8-8,0.8-16,0.8-24c0-89.6-36.8-163.2-83.2-167.2c-4,0.8-8,4.8-12,11.2
	c4.8-7.2,9.6-12,14.4-12C432.8,80,480,155.2,480,248s-47.2,168-104.8,168c-4.8,0-9.6-4-13.6-11.2c4,6.4,8,10.4,12,11.2
	c25.6-2.4,48-25.6,63.2-60.8C449.6,339.2,464,312.8,464,272z"/>
<g>
	<path style="fill:#EE5656;" d="M421.6,368.8c3.2-2.4,6.4-5.6,10.4-8.8C428,363.2,424,366.4,421.6,368.8z"/>
	<path style="fill:#EE5656;" d="M415.2,372.8c0,0,0.8-0.8,1.6-0.8C416,372.8,416,372.8,415.2,372.8z"/>
	<path style="fill:#EE5656;" d="M413.6,374.4c-0.8,0-0.8,0.8-1.6,0.8C412,374.4,412.8,374.4,413.6,374.4z"/>
</g>
<g>
	<path style="fill:#42210B;" d="M351.2,114.4c-0.8,2.4-1.6,4.8-2.4,8C350.4,119.2,350.4,116.8,351.2,114.4z"/>
	<path style="fill:#42210B;" d="M343.2,346.4c0.8,2.4,0.8,4,1.6,6.4C344,351.2,344,348.8,343.2,346.4z"/>
	<path style="fill:#42210B;" d="M340,326.4c0,2.4,0.8,4.8,0.8,7.2C340.8,330.4,340.8,328,340,326.4z"/>
</g>
<path id="SVGCleanerId_0" style="fill:#CC9966;" d="M323.2,312h-6.4c-28.8,0-52,23.2-52,52v107.2c0,4.8-4,8.8-8.8,8.8h-14.4
	c-4.8,0-8.8-4-8.8-8.8V364c0-28.8-23.2-52-52-52h-6.4c0.8-10.4,1.6-20.8,2.4-32H200c17.6,0,32-14.4,32-32s-14.4-32-32-32h-24.8
	c0-9.6-0.8-20.8-2.4-32h6.4c28.8,0,52-23.2,52-52V24.8C232,20,236,16,240.8,16h14.4c4.8,0,8.8,4,8.8,8.8V132c0,28.8,23.2,52,52,52
	h6.4c-0.8,10.4-1.6,20.8-2.4,32h-24c-17.6,0-32,14.4-32,32s14.4,32,32,32h24.8C321.6,289.6,322.4,300.8,323.2,312z"/>
<path style="fill:#CC9966;" d="M328.2,311.6c-0.8-11-1.6-22.4-2.4-32.1l-0.4-4.6H296c-14.9,0-27-12.1-27-27s12.1-27,27-27h28.7
	l0.3-4.6c0.8-11.4,1.6-21.8,2.4-32l0.4-5.4H316c-25.9,0-47-21.1-47-47V24.8c0-7.6-6.2-13.8-13.8-13.8h-14.4c-7.1,0-13.3,5.6-14.5,13
	l-0.1,0.4V132c0,25.9-21.1,47-47,47H167l0.8,5.7c1.5,10.6,2.4,21.7,2.4,31.3v5H200c14.9,0,27,12.1,27,27s-12.1,27-27,27h-27.9
	l-0.3,4.6c-0.8,11.3-1.6,21.8-2.4,32L169,317h11.8c25.9,0,47,21.1,47,47v107.2c0,7.6,6.2,13.8,13.8,13.8H256
	c7.6,0,13.8-6.2,13.8-13.8V364c0-25.9,21.1-47,47-47h11.8L328.2,311.6z"/>
<g>
	<path id="SVGCleanerId_0_1_" style="fill:#CC9966;" d="M323.2,312h-6.4c-28.8,0-52,23.2-52,52v107.2c0,4.8-4,8.8-8.8,8.8h-14.4
		c-4.8,0-8.8-4-8.8-8.8V364c0-28.8-23.2-52-52-52h-6.4c0.8-10.4,1.6-20.8,2.4-32H200c17.6,0,32-14.4,32-32s-14.4-32-32-32h-24.8
		c0-9.6-0.8-20.8-2.4-32h6.4c28.8,0,52-23.2,52-52V24.8C232,20,236,16,240.8,16h14.4c4.8,0,8.8,4,8.8,8.8V132c0,28.8,23.2,52,52,52
		h6.4c-0.8,10.4-1.6,20.8-2.4,32h-24c-17.6,0-32,14.4-32,32s14.4,32,32,32h24.8C321.6,289.6,322.4,300.8,323.2,312z"/>
</g>
<path style="fill:#E94545;" d="M456.7,123.9C435,89.1,405.7,70,374.2,70c-11.5,0-20.9,11.5-25.5,20.9c1.4,0.9-5.7,20.6-4.4,21.5
	C323.5,159.9,330,196.8,330,248c0,53.2-0.2,95.3,17,145.7c-3.8,0.9,2.2,15.2,4.4,18.4c2.8,4.2,16.3,12.9,21.4,13.7
	c9.7,1.6,21.5-1.9,30.6-5.5c22.8-9.1,40.5-27.7,53.3-48.2C477.5,338.8,489,294.7,489,248S477.5,157.2,456.7,123.9z"/>
<path style="fill:#EE5656;" d="M431.4,129.2C414.2,95.9,391,77.6,366,77.6c-3.4,0-6.7,1.5-9.9,4.5c-4.5,4.3-11.5,18.3-10.4,19.1
	c-17,46.3-14.8,98-14.8,146.8c0,25,0.9,50,3.8,74.8c2.7,23.9,5.7,50.9,15.8,73c-1.3,1-2.5,1.9-3.8,2.9c-5.9,4.4,15.5,18.7,18.6,19.4
	c7.9,1.9,17.6-1.9,24.7-5.5c18.7-9.4,32-27.5,41.4-45.7c16.5-32,25.6-74.2,25.6-118.9S447.9,161.1,431.4,129.2z"/>
<path style="fill:#E94545;" d="M7,248c0,46.7,11.5,90.8,32.3,124.1c12.5,20,29.6,38.1,51.6,47.5c20.1,8.5,46.9,11,55.5-14.2
	c-1.7-1-3.4-2-5.1-3c2.9,1.4,17.6-62.5,18.3-66.8c6.8-40.5,9-81.9,6.7-122.9c-2.2-40.3-7.3-81.7-23.2-119.1c1.4-0.9,2.7-1.8,4.1-2.7
	c-6.7-8.5-13.1-20.9-25.5-20.9C90.3,70,61,89.1,39.3,123.9C18.5,157.2,7,201.3,7,248z"/>
<path style="fill:#EE5656;" d="M40,248c0,44.7,9.1,86.9,25.6,118.8c17.2,33.3,40.4,51.6,65.4,51.6c0.2,0,0.5,0,0.7,0l1,0.1l1.1-0.3
	c1.8-0.4,3.6-1.3,5.2-2.6c5.7-4.3,8.3-10.8,11.5-17c-1.3-1-2.6-1.9-4-2.9c7.9-21,11.8-42.8,14.9-65l0.1-0.4v-0.5
	c0-0.8,0.1-1.7,0.3-2.7c0.2-1.2,0.3-2.5,0.4-3.9c2.5-21.5,3.8-46.9,3.8-75.4c0-48.9,1.4-96.8-15.5-143.2c1.1-0.9-2.9-6.1-1.8-7
	c-4.7-7.4-7.2-20.2-17.7-20.2c-24.9,0-48.1,18.3-65.4,51.6C49.1,161.1,40,203.3,40,248z"/>
<path style="fill:#42210B;" d="M375.2,64C441.6,64,496,146.4,496,248s-54.4,184-120.8,184c-30.4,0-44-54.4-50.4-104h-8
	c-20.8,0-36.8,16-36.8,36v107.2c0,13.6-11.2,24.8-24.8,24.8h-14.4c-13.6,0-24.8-11.2-24.8-24.8V364c0-20-16-36-36-36h-8
	c-1.6,16-4,30.4-7.2,43.2c-9.6,40.8-24,60.8-43.2,60.8C54.4,432,0,349.6,0,248S54.4,64,120.8,64c30.4,0,44,54.4,50.4,104h8.8
	c20,0,36-16,36-36V24.8C216,11.2,227.2,0,240.8,0h14.4C268.8,0,280,11.2,280,24.8V132c0,20,16,36,36,36h8c1.6-16,4-30.4,7.2-43.2
	C341.6,84.8,356,64,375.2,64z M480,248c0-92.8-47.2-168-104.8-168c-4.8,0-9.6,4-14.4,12c-0.8,0.8-0.8,1.6-1.6,3.2
	c-0.8,0.8-0.8,2.4-1.6,3.2c-2.4,4.8-4,9.6-6.4,16c-0.8,2.4-1.6,4.8-2.4,8c-0.8,2.4-1.6,4.8-1.6,7.2C340,160,336,202.4,336,248
	c0,29.6,1.6,56,4,78.4c0,2.4,0.8,4.8,0.8,7.2c0.8,4.8,1.6,9.6,2.4,13.6c0.8,2.4,0.8,4,1.6,6.4c2.7,12.8,6.1,25.6,10.8,37.8
	c3.2,8.1,8.5,24.6,19.6,24.6C432.8,416,480,340.8,480,248z M316,312h6.4c-0.8-11.2-1.6-22.4-2.4-32h-24c-17.6,0-32-14.4-32-32
	s14.4-32,32-32h24.8c0.8-11.2,1.6-21.6,2.4-32h-6.4c-28.8,0-52-23.2-52-52V24.8C264,20,260,16,255.2,16h-14.4c-4.8,0-8.8,4-8.8,8.8
	V132c0,28.8-23.2,52-52,52h-6.4c0.8,11.2,1.6,22.4,2.4,32h24c17.6,0,32,14.4,32,32s-14.4,32-32,32h-24.8c-0.8,11.2-0.8,21.6-2.4,32
	h6.4c28.8,0,52,23.2,52,52v107.2c0,4.8,4,8.8,8.8,8.8h14.4c4.8,0,8.8-4,8.8-8.8V364C264,335.2,287.2,312,316,312z M296,264h24
	c0-8,0-13.6,0-16c0-5.6,0-10.4,0-16h-24c-8.8,0-16,7.2-16,16C280,256.8,287.2,264,296,264z M216,248c0-8.8-7.2-16-16-16h-24
	c0,8,0,13.6,0,16c0,5.6,0,10.4,0,16h24C208.8,264,216,256.8,216,248z M159.3,248c1.7-39.7-1.6-78.5-9.2-117.5
	c-1.3-6.6-2.3-14.8-5.3-20.8c-0.8-1.6-0.8-3.2-1.6-4c0-0.8-0.8-1.6-0.8-1.6c-0.8-0.8-0.8-2.4-1.6-3.2c-0.8-0.8-0.8-2.4-1.6-3.2
	C133.6,86.4,128,80,122.4,80C63.2,80,16,155.2,16,248s47.2,168,104.8,168c4.8,0,9.6-4,13.6-12c0.8-0.8,0.8-1.6,1.6-3.2
	s0.8-2.4,1.6-3.2c2.4-4.8,4-9.6,6.4-16c0.8-2.4,1.6-4.8,2.4-8c0.8-2.4,1.6-4.8,1.6-7.2c0.8-4,1.6-8,2.4-12c2.4-10.4,4-21.6,4.8-33.6
	c0.8-10.4,2.4-20.8,2.4-32c0-8,0.6-15.9,0.9-23.9C158.8,259.3,159,253.6,159.3,248z M436,355.2c-1.6,1.6-3.2,3.2-4.8,4.8
	c-4,3.2-7.2,6.4-10.4,8.8c-1.6,1.6-3.2,2.4-4.8,3.2c0,0-0.8,0.8-1.6,0.8c-0.8,0.8-1.6,0.8-2.4,1.6c-0.8,0-0.8,0.8-1.6,0.8l0,0
	L408,368l-4-7.2c2.4-0.8,44-23.2,44-88.8h7.2h8.8C464,312.8,449.6,339.2,436,355.2z M91.2,105.6l9.6,12.8C100,119.2,48,156.8,48,216
	h-5.6H32c0-48,28.8-82.4,46.4-99.2c1.6-1.6,2.4-2.4,3.2-3.2c0.8-0.8,2.4-1.6,3.2-2.4c1.6-1.6,4-3.2,4.8-4S90.4,106.4,91.2,105.6
	L91.2,105.6z M48,232v24h-8h-8v-24h8.8H48z"/>
</svg>